<?xml version="1.0" encoding="utf-8"?>
<!-- Generator: Adobe Illustrator 22.0.0, SVG Export Plug-In . SVG Version: 6.00 Build 0)  -->
<svg version="1.1" id="Layer_1" xmlns="http://www.w3.org/2000/svg" xmlns:xlink="http://www.w3.org/1999/xlink" x="0px" y="0px"
	 viewBox="0 0 78.6 78.6" style="enable-background:new 0 0 78.6 78.6;" xml:space="preserve">
<style type="text/css">
	.st0{fill:#7198A6;}
</style>
<circle class="st0" cx="39.3" cy="57.8" r="3.6"/>
<path class="st0" d="M38.8,48.3c1.1,0,2-0.9,2-2v-19c0-1.1-0.9-2-2-2s-2,0.9-2,2v19C36.8,47.5,37.7,48.3,38.8,48.3z"/>
<path class="st0" d="M46.6,11.5l-0.1-0.1c-1.9-2.9-3.8-5.8-7.2-5.8c-3.6,0-5.5,3-7.3,5.9l-0.1,0.1L0.3,65.3C0.1,65.6,0,65.7,0,66.1
	C0,70,3.1,73,7,73h64.6c3.9,0,7-3,7-6.9c0-0.4-0.1-0.6-0.3-0.9L46.6,11.5z M71.6,69H7c-1.5,0-2.7-1-2.9-2.4l31.4-53.1
	c1.6-2.5,2.6-4,3.9-4c1.3,0,2.5,1.9,3.8,4l31.4,53C74.3,68,73,69,71.6,69z"/>
</svg>
