<?xml version="1.0" encoding="utf-8"?>
<!-- Generator: Adobe Illustrator 22.0.0, SVG Export Plug-In . SVG Version: 6.00 Build 0)  -->
<svg version="1.1" id="Layer_1" xmlns="http://www.w3.org/2000/svg" xmlns:xlink="http://www.w3.org/1999/xlink" x="0px" y="0px"
	 viewBox="0 0 512 512" style="enable-background:new 0 0 512 512;" xml:space="preserve">
<style type="text/css">
	.st0{fill:#7198A6;}
</style>
<path class="st0" d="M506.3,39c-4-16.1-16.4-28.8-32.4-33.1c-60.4-16.1-125.3,1.3-169.4,45.4c-3.9,3.9-3.9,10.2,0,14.1l49.8,49.8
	l-17.5,17.5l-0.8-0.7c-4.2-3.6-10.5-3-14.1,1.2s-3,10.5,1.2,14.1l7.8,6.6c1.8,1.5,4.1,2.4,6.5,2.4c2.6,0,5.1-1,7.1-2.9l24-24
	l14.1,14.1l-23.9,23.9c-3.7,3.7-3.9,9.6-0.6,13.5l65,77c1.7,2,2.6,4.6,2.3,7.3c-0.2,2.6-1.5,5.1-3.5,6.8c-4.2,3.6-10.5,3-14.1-1.1
	L345,196.5c-1.8-2.1-4.4-3.4-7.2-3.5c-2.8-0.1-5.5,0.9-7.5,2.9L295,231.1c-3.7,3.7-3.9,9.6-0.6,13.5l49.3,58.3
	c1.7,2,2.6,4.6,2.3,7.3c-0.2,2.6-1.5,5.1-3.5,6.8c-4.2,3.6-10.5,3-14.1-1.1l-47.1-55.8c-1.8-2.1-4.4-3.4-7.2-3.5
	c-2.8-0.1-5.5,0.9-7.5,2.9l-35.3,35.3c-3.7,3.7-3.9,9.6-0.6,13.5l26.6,31.5c3.6,4.2,3,10.5-1.2,14.1c-2,1.7-4.6,2.6-7.3,2.3
	c-2.6-0.2-5.1-1.5-6.8-3.5l-24.5-29c-1.8-2.1-4.4-3.4-7.2-3.5c-2.8-0.1-5.5,0.9-7.5,2.9l-47.2,47.2c-3.9,3.9-10.2,3.9-14.1,0
	c-1.9-1.9-2.9-4.4-2.9-7.1s1-5.2,2.9-7.1l47.2-47.2c2-2,3-4.7,2.9-7.5c-0.1-2.8-1.4-5.4-3.5-7.2L159.5,270
	c-4.2-3.6-4.7-9.9-1.2-14.1c3.6-4.2,9.9-4.7,14.1-1.1l31.3,26.4c4,3.4,9.8,3.1,13.5-0.6l35.3-35.3c2-2,3-4.7,2.9-7.5
	c-0.1-2.8-1.4-5.4-3.5-7.2l-55.5-46.9c-2-1.7-3.3-4.2-3.5-6.8c-0.2-2.6,0.6-5.3,2.3-7.3c1.7-2,4.2-3.3,6.8-3.5
	c2.6-0.2,5.3,0.6,7.3,2.3l58.1,49c4,3.4,9.8,3.1,13.5-0.6l35.3-35.3c2-2,3-4.7,2.9-7.5c-0.1-2.8-1.4-5.4-3.5-7.2l-74.2-62.7
	c-2-1.7-3.3-4.1-3.5-6.8s0.6-5.2,2.3-7.3c1.7-2,4.2-3.3,6.8-3.5c2.6-0.2,5.3,0.6,7.3,2.4l7.8,6.6c4.2,3.6,10.5,3,14.1-1.2
	s3-10.5-1.2-14.1l-7.8-6.6c-6.1-5.2-13.9-7.7-21.9-7c-8,0.7-15.2,4.4-20.4,10.5c-5.2,6.1-7.7,13.9-7,21.9c0.7,8,4.4,15.2,10.5,20.4
	l65.9,55.6l-21.1,21.1l-51-43.1c-6.1-5.2-13.9-7.7-21.9-7c-8,0.7-15.2,4.4-20.4,10.5c-5.2,6.1-7.7,13.9-7,21.9
	c0.7,8,4.4,15.2,10.5,20.4l47.2,39.9L209.6,260l-24.2-20.5c-12.6-10.7-31.6-9.1-42.3,3.5c-10.7,12.6-9.1,31.6,3.5,42.3l20.4,17.3
	l-17.3,17.3c-16.5-10.1-35.6-15.6-54.9-15.6c-37.3,0-72.1,20.1-90.8,52.4c-5.5,9.6-5.4,21.4,0.3,30.9c15.1,25.8,41,44.1,70.2,49.9
	c5.8,29.2,24.1,55,49.9,70.1c9.5,5.7,21.3,5.8,30.9,0.3c14.7-8.5,27.2-20.6,36.3-35c2.9-4.7,1.5-10.8-3.1-13.8
	c-4.7-2.9-10.9-1.5-13.8,3.1c-7.4,11.7-17.5,21.5-29.4,28.4c-3.3,1.9-7.3,1.8-10.6-0.1c0,0-0.1-0.1-0.1-0.1
	c-22.7-13.3-38.2-36.8-41.4-62.9c-0.6-4.5-4.1-8.1-8.7-8.7c-26.1-3.3-49.6-18.7-62.9-41.4c0,0-0.1-0.1-0.1-0.1
	c-2-3.2-2-7.3-0.1-10.6c15.1-26.2,43.3-42.4,73.5-42.4c13.9,0,27.9,3.6,40.2,10.3l-7.6,7.5c-5.7,5.7-8.8,13.2-8.8,21.2
	s3.1,15.5,8.8,21.2c5.8,5.8,13.5,8.8,21.2,8.8c7.7,0,15.4-2.9,21.2-8.8l7.6-7.6c2.5,4.6,4.5,9.4,6.2,14.4c1.4,4.2,5.3,6.9,9.5,6.9
	c5.5,0,10-4.5,10-10c0-1-0.2-2.1-0.5-3.1c-2.6-8-6.1-15.7-10.5-22.9l17.3-17.3l17.5,20.7c5.2,6.1,12.4,9.8,20.4,10.5
	c8,0.7,15.7-1.8,21.9-7c12.6-10.7,14.2-29.7,3.5-42.3L252,302.4l21.1-21.1l40.1,47.5c10.7,12.6,29.7,14.2,42.3,3.5
	c6.1-5.2,9.8-12.4,10.5-20.4s-1.8-15.7-7-21.8l-43.3-51.3l21.1-21.1l55.9,66.2c10.7,12.6,29.7,14.2,42.3,3.5
	c6.1-5.2,9.8-12.4,10.5-20.4c0.7-8-1.8-15.7-7-21.8l-59.1-69.9l17.4-17.4l49.8,49.8c3.9,3.9,10.2,3.9,14.1,0
	C504.6,163.7,522,99.1,506.3,39L506.3,39z M453.4,186.1l-77.9-77.9v0l-49.6-49.6c38.7-34,92.5-46.8,142.8-33.3
	c9.1,2.4,16.1,9.6,18.2,18.7C500.1,94,487.2,147.6,453.4,186.1L453.4,186.1z"/>
<path class="st0" d="M430.4,53.1h-8.5v-8.5c0-5.5-4.5-10-10-10s-10,4.5-10,10v8.5h-8.5c-5.5,0-10,4.5-10,10s4.5,10,10,10h8.5v8.5
	c0,5.5,4.5,10,10,10s10-4.5,10-10v-8.5h8.5c5.5,0,10-4.5,10-10S435.9,53.1,430.4,53.1z M292.7,121.6c1.8,1.5,4.1,2.3,6.4,2.3
	c3,0,5.8-1.3,7.7-3.6c3.5-4.2,3-10.5-1.3-14.1l0,0c-4.2-3.5-10.5-3-14.1,1.3C287.9,111.7,288.4,118,292.7,121.6z M198.3,419
	c-5.5-0.7-10.5,3.1-11.2,8.6c-0.7,5.5,3.1,10.5,8.6,11.2c0.4,0.1,0.9,0.1,1.3,0.1c4.9,0,9.2-3.7,9.9-8.7l0,0
	C207.6,424.8,203.8,419.8,198.3,419C198.3,419,198.3,419,198.3,419z"/>
</svg>
