<?xml version="1.0" encoding="utf-8"?>
<!-- Generator: Adobe Illustrator 22.0.0, SVG Export Plug-In . SVG Version: 6.00 Build 0)  -->
<svg version="1.1" id="Layer_1" xmlns="http://www.w3.org/2000/svg" xmlns:xlink="http://www.w3.org/1999/xlink" x="0px" y="0px"
	 viewBox="0 0 512 512" style="enable-background:new 0 0 512 512;" xml:space="preserve">
<style type="text/css">
	.st0{fill:#7198A6;}
</style>
<path class="st0" d="M408,280c-2.7,0-5.2-1.1-7.1-2.9c-1.9-1.9-2.9-4.4-2.9-7.1s1.1-5.2,2.9-7.1c1.9-1.9,4.4-2.9,7.1-2.9
	s5.2,1.1,7.1,2.9c1.9,1.9,2.9,4.4,2.9,7.1s-1.1,5.2-2.9,7.1C413.2,278.9,410.7,280,408,280z"/>
<path class="st0" d="M408,239c5.5,0,10-4.5,10-10v-99c0-2.4-0.9-4.7-2.4-6.5l-54.6-63.2V25.5c0-14-11.4-25.5-25.5-25.5H177.4
	c-14,0-25.5,11.4-25.5,25.5v35.9l-55.6,97.7c0,0,0,0,0,0.1c-0.8,1.5-1.3,3.2-1.3,4.9v338c0,5.5,4.5,10,10,10h205
	c1.7,0,3.3-0.4,4.8-1.2c0,0,0,0,0,0l98-54c3.2-1.8,5.2-5.1,5.2-8.8V312c0-5.5-4.5-10-10-10s-10,4.5-10,10v130.1l-78,43v-314l78-27.1
	V229C398,234.5,402.5,239,408,239z M177.4,20h158.1c3,0,5.5,2.5,5.5,5.5V54h-169V25.5C171.9,22.5,174.4,20,177.4,20L177.4,20z
	 M300,492H171V391c0-5.5-4.5-10-10-10s-10,4.5-10,10v101h-36V174h185V492z M303.3,154H122.2l45.6-80H336L303.3,154z M327.6,147.3
	L354,82.9l36.8,42.5L327.6,147.3z"/>
<path class="st0" d="M161,361.5c-2.7,0-5.2-1.1-7.1-2.9c-1.9-1.9-2.9-4.4-2.9-7.1s1.1-5.2,2.9-7.1c1.9-1.9,4.4-2.9,7.1-2.9
	s5.2,1.1,7.1,2.9c1.9,1.9,2.9,4.4,2.9,7.1s-1.1,5.2-2.9,7.1C166.2,360.4,163.7,361.5,161,361.5z"/>
</svg>
