<?xml version="1.0" encoding="utf-8"?>
<!-- Generator: Adobe Illustrator 22.0.0, SVG Export Plug-In . SVG Version: 6.00 Build 0)  -->
<svg version="1.1" id="Layer_1" xmlns="http://www.w3.org/2000/svg" xmlns:xlink="http://www.w3.org/1999/xlink" x="0px" y="0px"
	 viewBox="0 0 512 512" style="enable-background:new 0 0 512 512;" xml:space="preserve">
<style type="text/css">
	.st0{fill:#7198A6;}
</style>
<path class="st0" d="M445.3,7.8c-10.1-9.7-26-9.7-36.2,0l-29.6,29.6c-3.3,3.3-3.3,8.7,0,12.1c0,0,0,0,0,0l5.9,5.9l-5.8,5.8
	c-6.8-6.3-17.3-6.2-23.9,0.1l-11.8,11.8c-4.1,4.1-5.8,10.1-4.6,15.7c-6.3,1.5-12.8,2-19.3,1.4c-47.7-5-95.3,10.4-131.1,42.5
	L14.8,306.8c-15.8,15.8-19.4,40-8.9,59.7c10.5,19.7,32.6,30.1,54.5,25.8c-0.7,3.3-1,6.6-1,9.9c0,15.1,6.9,29.5,18.6,39.1
	c11.7,9.6,27.1,13.5,42,10.5c-0.7,3.3-1,6.6-1,10c0.1,12.8,4.9,25.1,13.6,34.5c9.2,9.8,22,15.4,35.5,15.5
	c14.5,0.2,28.5-5.4,38.8-15.6l29.8-29.8l0,0l142.9-142.9c32.1-35.7,47.5-83.3,42.5-131.1c-0.6-6.5-0.1-13,1.4-19.3
	c5.7,1.3,11.6-0.4,15.7-4.5l11.8-11.8c6.6-6.6,6.6-17.3,0.1-24l5.8-5.8l5.9,5.9c3.3,3.3,8.7,3.3,12.1,0c0,0,0,0,0,0l29.6-29.6
	c10-10,10-26.2,0-36.1c0,0,0,0,0,0L445.3,7.8z M230.7,448.2l-95-95c-6.6-6.7-6.6-17.4,0-24.1l106.7-106.7c6.7-6.6,17.4-6.6,24.1,0
	l95,95L230.7,448.2z M373.1,304.8l-94.5-94.5c-13.3-13.3-34.9-13.3-48.2,0L123.7,317c-13.3,13.3-13.3,34.9,0,48.2c0,0,0,0,0,0l95,95
	L194.9,484c-6.9,7.1-16.6,11-26.5,10.6c-8.8,0-17.2-3.7-23.3-10c-12.4-13.2-12-33.9,0.8-46.6c3.4-3.3,3.5-8.7,0.2-12.1
	c-1.1-1.1-2.5-1.9-4-2.3c-3-0.8-6.2,0.1-8.3,2.3c-13.1,13.2-34.3,13.2-47.5,0.2c-13.2-13.1-13.2-34.3-0.2-47.5
	c0.1-0.1,0.1-0.1,0.2-0.2c3.3-3.3,3.3-8.7,0-12.1s-8.7-3.3-12.1,0l0,0c-13.1,13.1-34.4,13.1-47.5,0c-13.1-13.1-13.1-34.4,0-47.5l0,0
	L201,144.8c32.3-28.2,74.7-41.8,117.3-37.6c10.7,1,21.5-0.3,31.7-3.8l58.9,58.9c-3.5,10.2-4.8,21-3.8,31.7
	C408.9,233.6,397.5,273.3,373.1,304.8L373.1,304.8z M427.2,156.4l-2.3-2.3l-66.6-66.6l-2.3-2.3l11.8-11.8l71.3,71.3L427.2,156.4z
	 M439.1,120.7l-47.5-47.5l5.8-5.8l47.5,47.5L439.1,120.7z M492.5,91.2l-23.6,23.6l-5.9-5.9l0,0l-29.7-29.7l11.8-11.8
	c3.3-3.4,3.1-8.8-0.3-12.1c-3.3-3.2-8.5-3.2-11.8,0l-11.8,11.8l-5.8-5.8l11.8-11.8c3.2-3.3,3.2-8.7-0.1-12c-3.3-3.3-8.6-3.3-12-0.1
	l-11.8,11.8l-5.8-5.8l23.6-23.6c3.4-3.2,8.7-3.2,12.1,0l59.3,59.3c1.6,1.6,2.5,3.8,2.5,6C494.9,87.4,494.1,89.6,492.5,91.2
	L492.5,91.2z"/>
<path class="st0" d="M212.8,156.5L105.6,263.7c-3.4,3.3-3.5,8.7-0.3,12.1c3.3,3.4,8.7,3.5,12.1,0.3c0.1-0.1,0.2-0.2,0.3-0.3
	l107.2-107.2c3.2-3.3,3.2-8.7-0.1-12C221.4,153.3,216.1,153.3,212.8,156.5L212.8,156.5z M81.8,287.5l-11.9,11.9
	c-2.2,2.1-3.1,5.3-2.3,8.3c0.8,3,3.1,5.3,6.1,6.1c3,0.8,6.1-0.1,8.3-2.3l11.9-11.9c2.2-2.1,3.1-5.3,2.3-8.3c-0.8-3-3.1-5.3-6.1-6.1
	C87.1,284.4,83.9,285.3,81.8,287.5L81.8,287.5z"/>
</svg>
