<?xml version="1.0" encoding="utf-8"?>
<!-- Generator: Adobe Illustrator 22.0.0, SVG Export Plug-In . SVG Version: 6.00 Build 0)  -->
<svg version="1.1" id="Layer_1" xmlns="http://www.w3.org/2000/svg" xmlns:xlink="http://www.w3.org/1999/xlink" x="0px" y="0px"
	 viewBox="0 0 480.1 480.1" style="enable-background:new 0 0 480.1 480.1;" xml:space="preserve">
<style type="text/css">
	.st0{fill:#7198A6;}
</style>
<path class="st0" d="M435.5,64.8c-2.2-1.1-4.9-1.1-7.1,0.1l-34.5,17.5l-27-46.4C357.7,18.7,339.6,7.9,320,8H186.7
	c-19.9,0-38.4,10.5-48.7,27.5l-24.8,40.3c-2.3,3.7-1.2,8.6,2.5,10.9l88,56c1.3,0.8,2.8,1.2,4.3,1.2c0.7,0,1.3-0.1,2-0.2
	c2.1-0.5,4-1.9,5-3.9l33.6-60.5l36.8,69.6l-33.5,20.1c-2.9,1.8-4.4,5.2-3.7,8.6c0.7,3.4,3.5,5.9,6.9,6.3l119.1,13.5
	c0.3,0,0.6,0,0.9,0c3.1,0,5.9-1.8,7.2-4.5l56.9-117.5C441.1,71.5,439.5,66.8,435.5,64.8C435.5,64.8,435.5,64.8,435.5,64.8z
	 M205.1,124.7L131,77.5l20.7-33.7c7.4-12.3,20.7-19.8,35-19.8h32.5L239,63.8L205.1,124.7L205.1,124.7z M370.3,181l-90-10.2
	l19.8-11.9c3.6-2.2,4.9-6.8,3-10.6L237.4,24H320c13.9,0,26.6,7.7,33.1,20l30.8,52.9c2.1,3.7,6.8,5,10.5,3.1l20-10.2L370.3,181
	L370.3,181z M473,232.1l-25.9-51.6c-2-4-6.8-5.6-10.7-3.6c-0.2,0.1-0.3,0.2-0.5,0.3l-96,56c-3.8,2.2-5.1,7-3,10.8l33.4,60.1H296v-32
	c0-4.4-3.6-8-8-8c-2.3,0-4.4,1-5.9,2.6l-80,88c-2.6,2.9-2.8,7.2-0.4,10.3l80,104c2.7,3.5,7.7,4.1,11.2,1.5c2-1.5,3.1-3.9,3.1-6.3
	v-24h56c19.7,0.5,38-10.4,46.9-28l56-96l16.6-26.9C482.3,271.8,482.9,250,473,232.1z M385,404.2c-6.2,12.5-19.1,20.3-33,19.9h-64
	c-4.4,0-8,3.6-8,8v8.5l-61.6-80l61.6-67.7V312c0,4.4,3.6,8,8,8h146.1L385,404.2L385,404.2z M457.9,280.8L443.5,304h-54.8l-33.9-61
	l81.9-47.8l22.2,44.3C466,252.5,465.7,268.2,457.9,280.8L457.9,280.8z M191.3,244.7l-48-104c-1.4-3-4.5-4.9-7.8-4.6l-128,8
	c-4.4,0.3-7.8,4.1-7.5,8.5c0.2,2.6,1.6,4.9,3.8,6.3l0,0l39.6,24.5l-26.4,52.9c-9.6,17.4-9.5,38.5,0.1,55.8l44.5,76.9L86,411.1
	c10.5,17.8,29.4,28.7,50.1,29h32c4.4,0,8-3.6,8-8V320c0-4.4-3.6-8-8-8h-59.8l39.9-69.2l33,12.7c4.1,1.6,8.8-0.5,10.3-4.6
	C192.2,248.9,192.2,246.6,191.3,244.7L191.3,244.7z M160,328v96h-24c-14.9-0.1-28.7-8.1-36.2-20.9l-22-38l22.7-37H160z M147.5,225.4
	c-3.7-1.4-7.8,0.1-9.8,3.5L68.5,348.9L30.9,284c-6.9-12.6-6.8-27.9,0.3-40.4L61,184c1.9-3.7,0.6-8.2-2.9-10.4l-24.5-15.1l97.5-6.1
	l37.4,81.1L147.5,225.4L147.5,225.4z"/>
</svg>
